<svg width="30" height="30" viewBox="0 0 30 30" fill="none" xmlns="http://www.w3.org/2000/svg">
<path d="M20.6564 14.9996H9.34208C8.48997 14.9996 7.79922 14.3089 7.79922 13.4568V2.14247C7.79922 1.29036 8.48997 0.599609 9.34208 0.599609H20.6564C21.5085 0.599609 22.1992 1.29036 22.1992 2.14247V13.4568C22.1992 14.3089 21.5085 14.9996 20.6564 14.9996Z" fill="#F99750"/>
<path d="M13.4587 29.3998H2.14442C1.29231 29.3998 0.601562 28.7091 0.601562 27.857V16.5427C0.601562 15.6906 1.29231 14.9998 2.14442 14.9998H13.4587C14.3108 14.9998 15.0016 15.6906 15.0016 16.5427V27.857C15.0016 28.7091 14.3108 29.3998 13.4587 29.3998Z" fill="#15D8AD"/>
<path d="M27.8579 29.3998H16.5436C15.6915 29.3998 15.0008 28.7091 15.0008 27.857V16.5427C15.0008 15.6906 15.6915 14.9998 16.5436 14.9998H27.8579C28.71 14.9998 29.4008 15.6906 29.4008 16.5427V27.857C29.4008 28.7091 28.71 29.3998 27.8579 29.3998Z" fill="#F15959"/>
<path d="M18.8031 11.1138L16.2814 4.80976C16.071 4.28294 15.5687 3.94293 15.0012 3.94293C14.4337 3.94293 13.9314 4.28294 13.721 4.80976L11.1993 11.1138C11.0411 11.509 11.2334 11.9581 11.6292 12.1163C12.025 12.2755 12.4735 12.0827 12.6317 11.6863L13.0548 10.6286H16.9476L17.3707 11.6863C17.4912 11.9882 17.781 12.1715 18.0869 12.1715C18.1823 12.1715 18.2793 12.154 18.3732 12.1163C18.7689 11.9581 18.9613 11.509 18.8031 11.1138ZM13.672 9.08579L15.0012 5.76305L16.3304 9.08579H13.672Z" fill="white"/>
<path d="M10.2919 21.3267C10.5009 20.979 10.6285 20.5769 10.6285 20.1425C10.6285 18.8663 9.59046 17.8282 8.31426 17.8282H5.74283C5.31694 17.8282 4.97141 18.1738 4.97141 18.5997V21.6854V25.7997C4.97141 26.2256 5.31694 26.5711 5.74283 26.5711H8.82855C10.388 26.5711 11.6571 25.302 11.6571 23.7425C11.6571 22.719 11.1086 21.8233 10.2919 21.3267ZM6.51426 19.3711H8.31426C8.73964 19.3711 9.08569 19.7172 9.08569 20.1425C9.08569 20.5679 8.73964 20.914 8.31426 20.914H6.51426V19.3711ZM8.82855 25.0282H6.51426V22.4568H8.31426H8.82855C9.53768 22.4568 10.1143 23.0334 10.1143 23.7425C10.1143 24.4517 9.53768 25.0282 8.82855 25.0282Z" fill="white"/>
<path d="M22.7143 26.5711C22.421 26.5711 22.1252 26.5419 21.8293 26.4837C20.1258 26.1472 18.7582 24.7756 18.4257 23.071C18.1711 21.7632 18.5036 20.4328 19.3378 19.4203C20.1721 18.4083 21.402 17.8277 22.7123 17.8277C23.4907 17.8277 24.2552 18.0351 24.9232 18.4268C25.3044 18.6504 25.5414 19.0722 25.5414 19.5267V20.142C25.5414 20.5679 25.1959 20.9134 24.77 20.9134C24.3441 20.9134 23.9985 20.5679 23.9985 20.142V19.6789C23.6023 19.4766 23.1613 19.3706 22.7123 19.3706C21.8645 19.3706 21.0685 19.7462 20.5281 20.4016C19.9806 21.0666 19.7717 21.9098 19.9404 22.7757C20.1539 23.8721 21.0333 24.7535 22.1281 24.97C22.9117 25.1252 23.6921 24.9644 24.3285 24.521C24.6775 24.2784 25.1586 24.3623 25.4027 24.7124C25.6463 25.062 25.5609 25.5426 25.2114 25.7867C24.4712 26.3029 23.6073 26.5711 22.7143 26.5711Z" fill="white"/>
</svg>
